<svg version="1.1" id="Icons" xmlns="http://www.w3.org/2000/svg" xmlns:xlink="http://www.w3.org/1999/xlink" viewBox="0 0 32 32" xml:space="preserve" fill="#000000"><g id="SVGRepo_bgCarrier" stroke-width="0"></g><g id="SVGRepo_tracerCarrier" stroke-linecap="round" stroke-linejoin="round"></g><g id="SVGRepo_iconCarrier"> <style type="text/css"> .st0{fill:none;stroke:#000000;stroke-width:2;stroke-linejoin:round;stroke-miterlimit:10;} .st1{fill:none;stroke:#000000;stroke-width:2;stroke-linecap:round;stroke-linejoin:round;stroke-miterlimit:10;} .st2{fill:none;stroke:#000000;stroke-width:2;stroke-miterlimit:10;} </style> <path class="st0" d="M18.4,11.2c0.3,0.3,0.5,0.6,0.7,1c1.1-0.9,2.1-1.9,3-3c-0.4-0.2-0.7-0.4-1-0.7c-1.3-1.3-0.8-2.9,0.5-4.2 c1.3-1.3,2.9-1.7,4.2-0.5s1.5,3.6,0.5,5.1c-1.8,2.8-4.6,5.5-7.4,7.4c-1.5,1-3.8,0.8-5.1-0.5S13,13,14.3,11.7S17.1,10,18.4,11.2z"></path> <path class="st0" d="M21,20v7c0,1.1-0.9,2-2,2H9c-1.1,0-2-0.9-2-2V5c0-1.1,0.9-2,2-2h9"></path> <line class="st1" x1="7" y1="23" x2="21" y2="23"></line> <line class="st0" x1="13" y1="26" x2="15" y2="26"></line> </g></svg>