<svg viewBox="0 0 24 24" fill="none" xmlns="http://www.w3.org/2000/svg"><g id="SVGRepo_bgCarrier" stroke-width="0"></g><g id="SVGRepo_tracerCarrier" stroke-linecap="round" stroke-linejoin="round"></g><g id="SVGRepo_iconCarrier"> <path fill-rule="evenodd" clip-rule="evenodd" d="M17.3545 22.2323C15.3344 21.7262 11.1989 20.2994 7.44979 16.5502C3.70068 12.8011 2.27383 8.66562 1.76771 6.64553C1.47684 5.48462 2.00061 4.36437 2.88872 3.73L5.21698 2.06697C6.57925 1.09391 8.47435 1.4241 9.42727 2.80054L10.8931 4.9178C11.5153 5.81654 11.3006 7.04833 10.4112 7.68369L9.24237 8.51853C9.41926 9.19513 9.96942 10.5846 11.6924 12.3076C13.4154 14.0306 14.8049 14.5808 15.4815 14.7577L16.3164 13.5889C16.9517 12.6994 18.1835 12.4848 19.0822 13.107L21.1995 14.5728C22.5759 15.5257 22.9061 17.4208 21.9331 18.7831L20.27 21.1113C19.6357 21.9994 18.5154 22.5232 17.3545 22.2323ZM8.864 15.136C12.2734 18.5454 16.0358 19.8401 17.8406 20.2923C18.1044 20.3584 18.4233 20.2559 18.6426 19.9488L20.3056 17.6206C20.63 17.1665 20.5199 16.5348 20.0611 16.2172L17.9438 14.7514L17.0479 16.0056C16.6818 16.5182 16.0047 16.9202 15.2163 16.7501C14.2323 16.5378 12.4133 15.8569 10.2782 13.7218C8.14313 11.5867 7.46222 9.76773 7.24991 8.78373C7.0798 7.99534 7.48184 7.31824 7.99442 6.95212L9.24868 6.05622L7.78288 3.93896C7.46524 3.48014 6.83354 3.37008 6.37945 3.69443L4.0512 5.35747C3.74416 5.57678 3.64165 5.89568 3.70774 6.15946C4.15992 7.96421 5.45462 11.7267 8.864 15.136Z" fill="#0F0F0F"></path> <path d="M18.4142 6.99997H21C21.5523 6.99997 22 7.44769 22 7.99997C22 8.55226 21.5523 8.99997 21 8.99997H17C15.8954 8.99997 15 8.10454 15 6.99997V2.99997C15 2.44769 15.4477 1.99997 16 1.99997C16.5523 1.99997 17 2.44769 17 2.99997V5.58574L21.2552 1.33055C21.6457 0.940028 22.2789 0.940027 22.6694 1.33055C23.0599 1.72108 23.0599 2.35424 22.6694 2.74477L18.4142 6.99997Z" fill="#0F0F0F"></path> </g></svg>